<?xml version="1.0" encoding="UTF-8"?>
<svg id="_レイヤー_2" data-name="レイヤー 2" xmlns="http://www.w3.org/2000/svg" viewBox="0 0 45.98 46.24">
  <defs>
    <style>
      .cls-1 {
        fill: #040000;
        stroke-width: 0px;
      }

      .cls-2 {
        fill: #fff;
        stroke: #231815;
        stroke-miterlimit: 10;
        stroke-width: 2px;
      }
    </style>
  </defs>
  <g id="_レイヤー_1-2" data-name="レイヤー 1">
    <ellipse class="cls-2" cx="22.99" cy="23.12" rx="21.99" ry="22.12"/>
    <path class="cls-1" d="m16.24,12.44v-2.9c0-2.67,2.17-4.84,4.84-4.84h11.57c.26-.02.52.07.74.28l5.81,5.81c.21.21.3.48.28.74v15.44c0,2.67-2.17,4.84-4.84,4.84h-2.9v2.9c0,2.67-2.17,4.84-4.84,4.84h-13.56c-2.67,0-4.84-2.17-4.84-4.84v-17.43c0-2.67,2.17-4.84,4.84-4.84h2.9Zm0,1.94h-2.9c-1.6,0-2.9,1.3-2.9,2.9v17.43c0,1.6,1.3,2.9,2.9,2.9h13.56c1.6,0,2.9-1.3,2.9-2.9v-2.9h-4.84c-.53,0-.97-.43-.97-.97s.43-.97.97-.97h9.68c1.6,0,2.9-1.3,2.9-2.9v-14.52h-4.84c-.53,0-.97-.43-.97-.97v-4.84h-10.65c-1.6,0-2.9,1.3-2.9,2.9v9.68c0,.53-.43.97-.97.97h0c-.53,0-.97-.43-.97-.97v-4.84Zm17.43-3.87h2.5l-2.5-2.5v2.5Zm-7.18,7.74h-3.47c-.53,0-.97-.43-.97-.97s.43-.97.97-.97h5.81c.53,0,.97.43.97.97v5.81c0,.53-.43.97-.97.97s-.97-.43-.97-.97v-3.47l-9.97,9.97c-.38.38-.99.38-1.37,0-.38-.38-.38-.99,0-1.37l9.97-9.97h0Z"/>
  </g>
</svg>